<?xml version="1.0" encoding="utf-8"?>
<!-- Generator: Adobe Illustrator 25.0.1, SVG Export Plug-In . SVG Version: 6.00 Build 0)  -->
<svg version="1.1" id="Layer_1" xmlns="http://www.w3.org/2000/svg" xmlns:xlink="http://www.w3.org/1999/xlink" x="0px" y="0px"
	 viewBox="0 0 500 500" style="enable-background:new 0 0 500 500;" xml:space="preserve">
<style type="text/css">
	.st0{display:none;fill:#FFFFFF;stroke:#FFFFFF;stroke-width:10;stroke-miterlimit:10;}
	.st1{fill:#FFFFFF;stroke:#FFFFFF;stroke-width:10;stroke-miterlimit:10;}
	.st2{fill:#FFFFFF;stroke:#FFFFFF;stroke-width:5;stroke-miterlimit:10;}
</style>
<g>
	<path class="st0" d="M96.93,163.29c8.28-1.74,21.34-3.05,34.63-3.05c18.95,0,31.14,3.27,40.29,10.67
		c7.62,5.66,12.2,14.37,12.2,25.92c0,14.16-9.37,26.57-24.83,32.23v0.44c13.94,3.48,30.27,15.03,30.27,36.81
		c0,12.63-5.01,22.21-12.41,29.4c-10.24,9.37-26.79,13.72-50.75,13.72c-13.07,0-23.09-0.87-29.4-1.74V163.29z M115.88,223.4h17.21
		c20.04,0,31.8-10.45,31.8-24.61c0-17.21-13.07-23.96-32.23-23.96c-8.71,0-13.72,0.65-16.77,1.31V223.4z M115.88,293.74
		c3.7,0.65,9.15,0.87,15.9,0.87c19.6,0,37.68-7.19,37.68-28.53c0-20.04-17.21-28.31-37.9-28.31h-15.68V293.74z"/>
	<path class="st1" d="M203.49,148.14c13.24-2.21,30.57-4.1,52.63-4.1c27.1,0,46.95,6.3,59.56,17.65
		c11.66,10.08,18.59,25.52,18.59,44.43c0,19.22-5.67,34.35-16.39,45.38c-14.49,15.44-38.13,23.32-64.91,23.32
		c-8.19,0-15.76-0.32-22.06-1.89v85.08h-27.42V148.14z M230.91,250.55c5.99,1.58,13.55,2.21,22.69,2.21
		c33.09,0,53.26-16.07,53.26-45.38c0-28.05-19.85-41.6-50.11-41.6c-11.97,0-21.11,0.95-25.84,2.21V250.55z"/>
</g>
<path class="st2" d="M250,469.05c-120.82,0-219.11-98.29-219.11-219.11S129.18,30.82,250,30.82s219.12,98.29,219.12,219.12
	c0,23.06-3.59,45.29-10.22,66.18c5.57,2.98,10.82,6.49,15.67,10.46c8.23-24.05,12.71-49.83,12.71-76.64
	c0-130.83-106.44-237.27-237.27-237.27c-130.83,0-237.26,106.44-237.26,237.27S119.17,487.2,250,487.2c33.52,0,65.43-7,94.36-19.59
	c-4.35-4.52-8.26-9.47-11.67-14.77C307.16,463.28,279.25,469.05,250,469.05z"/>
<path class="st2" d="M456.55,375.84c3.7-4.22,5.74-9.01,5.74-14.16c0-18.2-25.53-31.92-59.39-31.92s-59.39,13.72-59.39,31.92
	c0,5.15,2.05,9.94,5.74,14.16c-3.7,4.22-5.74,9.01-5.74,14.16c0,5.15,2.05,9.94,5.74,14.16c-3.7,4.22-5.74,9.01-5.74,14.16
	c0,18.2,25.53,31.92,59.39,31.92s59.39-13.72,59.39-31.92c0-5.15-2.05-9.94-5.74-14.16c3.7-4.22,5.74-9.01,5.74-14.16
	C462.29,384.86,460.25,380.07,456.55,375.84z M427.37,404.16c-6.77,1.89-15.03,3.11-24.47,3.11c-9.44,0-17.7-1.22-24.47-3.11
	c-8.22-2.3-14.23-5.58-17.49-8.85c-1.82-1.83-2.79-3.66-2.79-5.31c0-1.65,0.97-3.48,2.79-5.31c4.01,2.11,8.61,3.9,13.69,5.31
	c8.31,2.31,17.9,3.6,28.27,3.6s19.95-1.29,28.27-3.6c5.08-1.41,9.67-3.2,13.69-5.31c1.82,1.83,2.79,3.66,2.79,5.31
	c0,1.65-0.97,3.48-2.79,5.31C441.6,398.59,435.59,401.87,427.37,404.16z M402.9,344.41c27.31,0,44.74,10.23,44.74,17.27
	c0,1.65-0.97,3.48-2.79,5.31c-3.26,3.27-9.27,6.55-17.49,8.85c-6.77,1.89-15.03,3.11-24.47,3.11c-9.44,0-17.7-1.22-24.47-3.11
	c-8.22-2.3-14.23-5.58-17.49-8.85c-1.82-1.83-2.79-3.66-2.79-5.31C358.16,354.64,375.59,344.41,402.9,344.41z M402.9,435.6
	c-27.31,0-44.74-10.23-44.74-17.27c0-1.65,0.97-3.48,2.79-5.31c10.58,5.57,25.25,8.91,41.95,8.91c16.7,0,31.37-3.34,41.95-8.91
	c1.82,1.83,2.79,3.66,2.79,5.31C447.65,425.37,430.22,435.6,402.9,435.6z"/>
</svg>
